<svg width="26" height="24" viewBox="0 0 26 24" fill="none" xmlns="http://www.w3.org/2000/svg">
<g id="Icon">
<path id="Mask" fill-rule="evenodd" clip-rule="evenodd" d="M5.41732 13H18.2711L14.3353 17.36C13.9518 17.784 14.0146 18.415 14.474 18.768C14.9344 19.122 15.6169 19.064 16.0004 18.64L21.4171 12.64C21.4593 12.593 21.4799 12.538 21.5113 12.486C21.5373 12.444 21.5687 12.408 21.5882 12.362C21.637 12.247 21.6662 12.126 21.6662 12.004C21.6662 12.003 21.6673 12.001 21.6673 12C21.6673 11.999 21.6662 11.997 21.6662 11.996C21.6662 11.874 21.637 11.753 21.5882 11.638C21.5687 11.592 21.5373 11.556 21.5113 11.514C21.4799 11.462 21.4593 11.407 21.4171 11.36L16.0004 5.36C15.7848 5.123 15.4772 5 15.1673 5C14.9225 5 14.6766 5.076 14.474 5.232C14.0146 5.585 13.9518 6.216 14.3353 6.64L18.2711 11H5.41732C4.81932 11 4.33398 11.448 4.33398 12C4.33398 12.552 4.81932 13 5.41732 13" fill="black"/>
</g>
</svg>
