<svg width="22" height="20" viewBox="0 0 22 20" fill="none" xmlns="http://www.w3.org/2000/svg">
<g id="Icon">
<path id="Mask" fill-rule="evenodd" clip-rule="evenodd" d="M14.5666 9.16675H11.9378V6.66675C11.9378 6.20592 11.5452 5.83342 11.0615 5.83342C10.5778 5.83342 10.1853 6.20592 10.1853 6.66675V10.0001C10.1853 10.4609 10.5778 10.8334 11.0615 10.8334H14.5666C15.0512 10.8334 15.4429 10.4609 15.4429 10.0001C15.4429 9.53925 15.0512 9.16675 14.5666 9.16675M11.0615 16.6667C7.1963 16.6667 4.05137 13.6759 4.05137 10.0001C4.05137 6.32425 7.1963 3.33341 11.0615 3.33341C14.9268 3.33341 18.0717 6.32425 18.0717 10.0001C18.0717 13.6759 14.9268 16.6667 11.0615 16.6667M11.0615 1.66675C6.22978 1.66675 2.29883 5.40508 2.29883 10.0001C2.29883 14.5951 6.22978 18.3334 11.0615 18.3334C15.8933 18.3334 19.8242 14.5951 19.8242 10.0001C19.8242 5.40508 15.8933 1.66675 11.0615 1.66675" fill="white"/>
</g>
</svg>
