<svg width="26" height="26" viewBox="0 0 26 26" fill="none" xmlns="http://www.w3.org/2000/svg">
<g id="coinbase 1" clip-path="url(#clip0_164_1976)">
<g id="Clip path group">
<mask id="mask0_164_1976" style="mask-type:luminance" maskUnits="userSpaceOnUse" x="0" y="0" width="26" height="26">
<g id="clip0_84_15704">
<path id="Vector" d="M26 0H0V26H26V0Z" fill="white"/>
</g>
</mask>
<g mask="url(#mask0_164_1976)">
<g id="Group">
<path id="Vector_2" d="M22.9531 0H3.04688C1.36413 0 0 1.36413 0 3.04688V22.9531C0 24.6359 1.36413 26 3.04688 26H22.9531C24.6359 26 26 24.6359 26 22.9531V3.04688C26 1.36413 24.6359 0 22.9531 0Z" fill="#0052FF"/>
<path id="Vector_3" d="M12.9746 2.03125C19.0464 2.03125 23.9688 6.95358 23.9688 13.0254C23.9688 19.0972 19.0464 24.0195 12.9746 24.0195C6.9028 24.0195 1.98047 19.0972 1.98047 13.0254C1.98047 6.95358 6.9028 2.03125 12.9746 2.03125Z" fill="#0052FF"/>
<path id="Vector_4" d="M12.9786 16.8459C10.8418 16.8459 9.11517 15.1145 9.11517 12.9824C9.11517 10.8504 10.8466 9.11899 12.9786 9.11899C14.8913 9.11899 16.4796 10.5117 16.7849 12.3385H20.6769C20.3478 8.37012 17.0281 5.25073 12.9739 5.25073C8.70501 5.25073 5.24219 8.71356 5.24219 12.9824C5.24219 17.2513 8.70501 20.7141 12.9739 20.7141C17.0281 20.7141 20.3478 17.5947 20.6769 13.6263H16.7801C16.4748 15.4531 14.8913 16.8459 12.9786 16.8459Z" fill="white"/>
</g>
</g>
</g>
</g>
<defs>
<clipPath id="clip0_164_1976">
<rect width="26" height="26" fill="white"/>
</clipPath>
</defs>
</svg>
