<svg width="30" height="30" viewBox="0 0 30 30" fill="none" xmlns="http://www.w3.org/2000/svg">
<g id="Icon">
<path id="Mask" fill-rule="evenodd" clip-rule="evenodd" d="M16.7678 15.0001L22.1341 9.63382C22.6228 9.14507 22.6228 8.35507 22.1341 7.86632C21.6453 7.37757 20.8553 7.37757 20.3666 7.86632L15.0003 13.2326L9.63406 7.86632C9.14531 7.37757 8.35531 7.37757 7.86656 7.86632C7.37781 8.35507 7.37781 9.14507 7.86656 9.63382L13.2328 15.0001L7.86656 20.3663C7.37781 20.8551 7.37781 21.6451 7.86656 22.1338C8.11031 22.3776 8.43031 22.5001 8.75031 22.5001C9.07031 22.5001 9.39031 22.3776 9.63406 22.1338L15.0003 16.7676L20.3666 22.1338C20.6103 22.3776 20.9303 22.5001 21.2503 22.5001C21.5703 22.5001 21.8903 22.3776 22.1341 22.1338C22.6228 21.6451 22.6228 20.8551 22.1341 20.3663L16.7678 15.0001Z" fill="white"/>
</g>
</svg>
