<svg width="19" height="19" viewBox="0 0 19 19" fill="none" xmlns="http://www.w3.org/2000/svg">
<g id="Icon">
<path id="Mask" fill-rule="evenodd" clip-rule="evenodd" d="M8.79741 18.2083C8.70716 18.2083 8.61612 18.1925 8.52666 18.16C8.18466 18.0357 7.97091 17.6937 8.01049 17.3319L8.61849 11.7166H3.95953C3.66741 11.7166 3.39903 11.5559 3.26128 11.2979C3.12353 11.0398 3.13937 10.7279 3.30166 10.4848L9.54633 1.14315C9.74899 0.839939 10.1322 0.714064 10.4749 0.839939C10.8177 0.964231 11.0307 1.30623 10.9911 1.66802L10.3831 7.28331H15.0429C15.335 7.28331 15.6034 7.44402 15.7411 7.70211C15.8781 7.96019 15.863 8.27211 15.7007 8.51515L9.45528 17.8568C9.30566 18.0816 9.05549 18.2083 8.79741 18.2083" fill="white"/>
</g>
</svg>
