<svg width="22" height="20" viewBox="0 0 22 20" fill="none" xmlns="http://www.w3.org/2000/svg">
<g id="Icon">
<path id="Mask" fill-rule="evenodd" clip-rule="evenodd" d="M9.64224 10.0632C9.64059 10.0424 9.63975 10.0213 9.63975 10V3.33333C9.63975 2.87333 10.0314 2.5 10.516 2.5C11.0006 2.5 11.3923 2.87333 11.3923 3.33333V9.99985L13.4953 8.5C13.8827 8.2225 14.4321 8.29833 14.7221 8.66667C15.013 9.035 14.9342 9.5575 14.5469 9.83333L11.0418 12.3333C10.8867 12.4442 10.7009 12.5 10.516 12.5C10.3399 12.5 10.1638 12.4492 10.0122 12.3483L6.50709 10.0033C6.11101 9.73833 6.0155 9.21833 6.29415 8.8425C6.57281 8.46583 7.11872 8.375 7.5148 8.64L9.64224 10.0632ZM5.2584 14.1667V15H15.7736V14.1667C15.7736 13.7083 16.168 13.3333 16.6499 13.3333C17.1319 13.3333 17.5262 13.7083 17.5262 14.1667V15.8333C17.5262 16.2917 17.1319 16.6667 16.6499 16.6667H4.38213C3.90018 16.6667 3.50586 16.2917 3.50586 15.8333V14.1667C3.50586 13.7083 3.90018 13.3333 4.38213 13.3333C4.86408 13.3333 5.2584 13.7083 5.2584 14.1667Z" fill="black"/>
</g>
</svg>
