<svg width="23" height="25" viewBox="0 0 23 25" fill="none" xmlns="http://www.w3.org/2000/svg">
<g id="Icon">
<path id="Mask" fill-rule="evenodd" clip-rule="evenodd" d="M16.5773 21.2577C16.4295 21.2577 16.2808 21.2207 16.1443 21.1447L11.3754 18.4807L6.60748 21.1447C6.29137 21.3197 5.90978 21.2897 5.62359 21.0657C5.33553 20.8417 5.19244 20.4627 5.25323 20.0877L6.16137 14.4597L2.30811 10.4747C2.05185 10.2097 1.95926 9.81173 2.06868 9.44773C2.17811 9.08573 2.47084 8.82073 2.82437 8.76673L8.15533 7.93873L10.5384 2.81273C10.8545 2.13273 11.8973 2.13273 12.2134 2.81273L14.5964 7.93873L19.9274 8.76673C20.2809 8.82073 20.5737 9.08573 20.6831 9.44773C20.7925 9.81173 20.6999 10.2097 20.4437 10.4747L16.5904 14.4597L17.4985 20.0877C17.5593 20.4627 17.4153 20.8417 17.1282 21.0657C16.9654 21.1937 16.7718 21.2577 16.5773 21.2577Z" fill="#FAB915"/>
</g>
</svg>
