<svg width="197" height="73" viewBox="0 0 197 73" fill="none" xmlns="http://www.w3.org/2000/svg">
<path d="M109.697 52.6954L97.5619 37.9503L92.5156 43.7516L99.6045 52.6954H109.697Z" fill="white"/>
<path d="M60.3925 52.6954C57.6129 52.6954 55.1772 52.03 53.0853 50.6993C50.9934 49.3376 49.3744 47.3879 48.2281 44.8502C47.1105 42.3125 46.5518 39.2951 46.5518 35.798C46.5518 32.301 47.1105 29.2836 48.2281 26.7459C49.3457 24.2082 50.9361 22.2585 52.9993 20.8968C55.0912 19.5352 57.5556 18.8543 60.3925 18.8543C63.2294 18.8543 65.6795 19.5352 67.7427 20.8968C69.8346 22.2585 71.4393 24.2082 72.5569 26.7459C73.6745 29.2836 74.2333 32.301 74.2333 35.798C74.2333 39.2951 73.6602 42.3125 72.5139 44.8502C71.3964 47.3879 69.7916 49.3376 67.6998 50.6993C65.6079 52.03 63.1721 52.6954 60.3925 52.6954ZM60.3925 44.9894C62.3125 44.9894 63.8026 44.1848 64.8628 42.5755C65.9231 40.9663 66.4532 38.7381 66.4532 35.8909C66.4532 33.0128 65.9231 30.7536 64.8628 29.1134C63.8312 27.4422 62.3411 26.6067 60.3925 26.6067C58.4439 26.6067 56.9395 27.4422 55.8792 29.1134C54.8476 30.7536 54.3318 33.0128 54.3318 35.8909C54.3318 38.7381 54.8619 40.9663 55.9222 42.5755C56.9825 44.1848 58.4726 44.9894 60.3925 44.9894Z" fill="url(#paint0_linear_60_1027)"/>
<path d="M30.5473 52.6954C27.7677 52.6954 25.3319 52.03 23.2401 50.6993C21.1482 49.3376 19.5291 47.3879 18.3829 44.8502C17.2653 42.3125 16.7065 39.2951 16.7065 35.798C16.7065 32.301 17.2653 29.2836 18.3829 26.7459C19.5005 24.2082 21.0909 22.2585 23.1541 20.8968C25.246 19.5352 27.7104 18.8543 30.5473 18.8543C33.3842 18.8543 35.8343 19.5352 37.8975 20.8968C39.9894 22.2585 41.5941 24.2082 42.7117 26.7459C43.8293 29.2836 44.3881 32.301 44.3881 35.798C44.3881 39.2951 43.815 42.3125 42.6687 44.8502C41.5511 47.3879 39.9464 49.3376 37.8545 50.6993C35.7627 52.03 33.3269 52.6954 30.5473 52.6954ZM30.5473 44.9894C32.4672 44.9894 33.9573 44.1848 35.0176 42.5755C36.0779 40.9663 36.608 38.7381 36.608 35.8909C36.608 33.0128 36.0779 30.7536 35.0176 29.1134C33.986 27.4422 32.4959 26.6067 30.5473 26.6067C28.5987 26.6067 27.0943 27.4422 26.034 29.1134C25.0024 30.7536 24.4866 33.0128 24.4866 35.8909C24.4866 38.7381 25.0167 40.9663 26.077 42.5755C27.1373 44.1848 28.6274 44.9894 30.5473 44.9894Z" fill="url(#paint1_linear_60_1027)"/>
<path d="M6.10369 28.6956L0 33.477V25.3997L7.3932 19.5506H13.7118V51.999H6.10369V28.6956Z" fill="url(#paint2_linear_60_1027)"/>
<path d="M71.1289 19.096L83.0238 33.5993L88.0701 27.798L81.2215 19.096H71.1289Z" fill="url(#paint3_linear_60_1027)"/>
<path d="M99.244 19.096H109.577L81.3417 52.6953H71.1289L99.244 19.096Z" fill="url(#paint4_linear_60_1027)"/>
<path d="M176.547 26.106H167.079L168.617 18.9026H196.108L194.57 26.106H185.054L179.479 52.6954H170.972L176.547 26.106Z" fill="white"/>
<path d="M143.078 18.9026H166.916L165.378 26.106H150.046L148.749 32.4391H159.947L158.505 39.1589H147.307L145.961 45.4921H161.293L159.803 52.6954H135.965L143.078 18.9026Z" fill="white"/>
<path d="M112.845 18.9026H129.858C132.422 18.9026 134.52 19.5311 136.154 20.7881C137.788 22.045 138.605 23.8177 138.605 26.106C138.605 26.6539 138.525 27.3629 138.365 28.2331C138.077 29.6512 137.468 30.9726 136.539 32.1974C135.642 33.3898 134.536 34.3567 133.223 35.098C134.376 35.6137 135.241 36.2905 135.818 37.1285C136.395 37.9664 136.683 39.0139 136.683 40.2709C136.683 40.9477 136.587 41.7212 136.395 42.5914C135.722 45.7499 134.232 48.2316 131.925 50.0364C129.65 51.8091 126.863 52.6954 123.562 52.6954H105.732L112.845 18.9026ZM125.148 32.294C127.616 32.294 129.121 31.1177 129.666 28.7649C129.762 28.3137 129.81 27.9269 129.81 27.6046C129.81 26.7344 129.538 26.1382 128.993 25.8159C128.449 25.4614 127.616 25.2841 126.494 25.2841H120.006L118.516 32.294H125.148ZM122.745 46.3139C124.187 46.3139 125.309 46.04 126.11 45.4921C126.943 44.9442 127.503 43.9773 127.792 42.5914C127.888 42.1402 127.936 41.7373 127.936 41.3828C127.936 40.4159 127.616 39.723 126.975 39.304C126.366 38.8528 125.421 38.6272 124.139 38.6272H117.17L115.584 46.3139H122.745Z" fill="white"/>
<defs>
<linearGradient id="paint0_linear_60_1027" x1="74.2333" y1="35.7748" x2="46.5518" y2="35.7748" gradientUnits="userSpaceOnUse">
<stop stop-color="#00FFFF"/>
<stop offset="1" stop-color="#00FFFF"/>
</linearGradient>
<linearGradient id="paint1_linear_60_1027" x1="44.3881" y1="35.7748" x2="16.7065" y2="35.7748" gradientUnits="userSpaceOnUse">
<stop stop-color="#00FFFF"/>
<stop offset="1" stop-color="#00FFFF"/>
</linearGradient>
<linearGradient id="paint2_linear_60_1027" x1="13.7118" y1="35.7748" x2="0" y2="35.7748" gradientUnits="userSpaceOnUse">
<stop stop-color="#00FFFF"/>
<stop offset="1" stop-color="#00FFFF"/>
</linearGradient>
<linearGradient id="paint3_linear_60_1027" x1="88.0701" y1="26.3476" x2="71.1289" y2="26.3476" gradientUnits="userSpaceOnUse">
<stop stop-color="#00FFFF"/>
<stop offset="1" stop-color="#00FFA8"/>
</linearGradient>
<linearGradient id="paint4_linear_60_1027" x1="71.1289" y1="35.8957" x2="109.577" y2="35.8957" gradientUnits="userSpaceOnUse">
<stop stop-color="#00FFFF"/>
<stop offset="1" stop-color="#00FFA8"/>
</linearGradient>
</defs>
</svg>
