<svg width="27" height="25" viewBox="0 0 27 25" fill="none" xmlns="http://www.w3.org/2000/svg">
<g id="metamask-icon 1" clip-path="url(#clip0_164_1943)">
<path id="Vector" d="M1.3679 0.0266113L11.8828 7.82511L9.93795 3.22395L1.3679 0.0266113Z" fill="#E2761B" stroke="#E2761B" stroke-linecap="round" stroke-linejoin="round"/>
<path id="Vector_2" d="M25.6426 0.0266113L15.2122 7.89891L17.0619 3.22395L25.6426 0.0266113Z" fill="#E4761B" stroke="#E4761B" stroke-linecap="round" stroke-linejoin="round"/>
<path id="Vector_3" d="M5.1528 18.1035L7.95312 22.3882L1.96116 24.0342L0.238536 18.1986L5.1528 18.1035Z" fill="#E4761B" stroke="#E4761B" stroke-linecap="round" stroke-linejoin="round"/>
<path id="Vector_4" d="M26.752 18.1986L25.04 24.0342L19.048 22.3882L21.8483 18.1035L26.752 18.1986Z" fill="#E4761B" stroke="#E4761B" stroke-linecap="round" stroke-linejoin="round"/>
<path id="Vector_5" d="M19.3867 10.8641L21.0566 13.3866L15.1072 13.6505L15.3183 7.26587L19.3867 10.8641Z" fill="#E4761B" stroke="#E4761B" stroke-linecap="round" stroke-linejoin="round"/>
<path id="Vector_6" d="M7.6241 10.8641L11.7451 7.19214L11.8828 13.6505L5.94348 13.3867L7.6241 10.8641Z" fill="#E4761B" stroke="#E4761B" stroke-linecap="round" stroke-linejoin="round"/>
<path id="Vector_7" d="M19.0469 22.3882L15.4751 20.6467L18.5609 18.2405L19.0469 22.3882Z" fill="#E4761B" stroke="#E4761B" stroke-linecap="round" stroke-linejoin="round"/>
<path id="Vector_8" d="M11.5352 20.6467L7.95274 22.3882L8.44932 18.2405L11.5352 20.6467Z" fill="#E4761B" stroke="#E4761B" stroke-linecap="round" stroke-linejoin="round"/>
<path id="Vector_9" d="M7.95274 22.3882L11.5352 20.6467L11.2496 22.9792L11.2815 23.9603L7.95274 22.3882Z" fill="#D7C1B3" stroke="#D7C1B3" stroke-linecap="round" stroke-linejoin="round"/>
<path id="Vector_10" d="M19.0469 22.3882L15.7181 23.9603L15.7393 22.9792L15.4751 20.6467L19.0469 22.3882Z" fill="#D7C1B3" stroke="#D7C1B3" stroke-linecap="round" stroke-linejoin="round"/>
<path id="Vector_11" d="M15.6665 16.7003L18.6465 15.8242L16.5437 14.8638L15.6665 16.7003Z" fill="#233447" stroke="#233447" stroke-linecap="round" stroke-linejoin="round"/>
<path id="Vector_12" d="M11.3438 16.7003L10.4665 14.8638L8.35308 15.8242L11.3438 16.7003Z" fill="#233447" stroke="#233447" stroke-linecap="round" stroke-linejoin="round"/>
<path id="Vector_13" d="M19.0473 22.3882L18.5401 18.1035L21.8477 18.1986L19.0473 22.3882Z" fill="#CD6116" stroke="#CD6116" stroke-linecap="round" stroke-linejoin="round"/>
<path id="Vector_14" d="M8.45898 18.1035L7.95177 22.3882L5.15144 18.1986L8.45898 18.1035Z" fill="#CD6116" stroke="#CD6116" stroke-linecap="round" stroke-linejoin="round"/>
<path id="Vector_15" d="M5.94348 13.3867L11.8828 13.6506L11.3331 16.7003L10.4558 14.8638L8.3424 15.8243L5.94348 13.3867Z" fill="#CD6116" stroke="#CD6116" stroke-linecap="round" stroke-linejoin="round"/>
<path id="Vector_16" d="M18.6471 15.8243L16.5337 14.8638L15.6671 16.7003L15.1072 13.6506L21.0566 13.3867L18.6471 15.8243Z" fill="#CD6116" stroke="#CD6116" stroke-linecap="round" stroke-linejoin="round"/>
<path id="Vector_17" d="M21.0566 13.3867L18.5626 18.2406L18.6471 15.8243L21.0566 13.3867Z" fill="#E4751F" stroke="#E4751F" stroke-linecap="round" stroke-linejoin="round"/>
<path id="Vector_18" d="M8.34342 15.8243L8.44922 18.2406L5.9445 13.3867L8.34342 15.8243Z" fill="#E4751F" stroke="#E4751F" stroke-linecap="round" stroke-linejoin="round"/>
<path id="Vector_19" d="M15.1062 13.6506L15.666 16.7004L14.9685 20.2986L14.81 15.5604L15.1062 13.6506Z" fill="#E4751F" stroke="#E4751F" stroke-linecap="round" stroke-linejoin="round"/>
<path id="Vector_20" d="M11.883 13.6506L12.168 15.5498L12.0414 20.2986L11.3332 16.7004L11.883 13.6506Z" fill="#E4751F" stroke="#E4751F" stroke-linecap="round" stroke-linejoin="round"/>
<path id="Vector_21" d="M11.3328 16.7003L12.041 20.2985L11.5338 20.6468L8.44796 18.2405L8.34216 15.8242L11.3328 16.7003Z" fill="#F6851B" stroke="#F6851B" stroke-linecap="round" stroke-linejoin="round"/>
<path id="Vector_22" d="M18.6465 15.8242L18.5619 18.2405L15.4761 20.6468L14.9689 20.2985L15.6665 16.7003L18.6465 15.8242Z" fill="#F6851B" stroke="#F6851B" stroke-linecap="round" stroke-linejoin="round"/>
<path id="Vector_23" d="M11.2802 23.9603L11.2483 22.9791L11.5125 22.7466H15.4964L15.7393 22.9791L15.7181 23.9603L19.0469 22.3882L17.8846 23.3375L15.5283 24.9733H11.4806L9.11361 23.3375L7.95137 22.3882L11.2802 23.9603Z" fill="#C0AD9E" stroke="#C0AD9E" stroke-linecap="round" stroke-linejoin="round"/>
<path id="Vector_24" d="M11.5347 20.6469L12.0419 20.2986H14.9688L15.476 20.6469L15.7402 22.9793L15.4973 22.7468H11.5134L11.2492 22.9793L11.5347 20.6469Z" fill="#161616" stroke="#161616" stroke-linecap="round" stroke-linejoin="round"/>
<path id="Vector_25" d="M0.92507 8.33163L0.0270737 4.02621L1.36902 0.0266113L11.5352 7.56123L7.62523 10.8642L2.09848 12.4788L0.872435 11.0543L1.40092 10.6747L0.555556 9.90428L1.21058 9.39776L0.365218 8.75373L0.92507 8.33163Z" fill="#763D16" stroke="#763D16" stroke-linecap="round" stroke-linejoin="round"/>
<path id="Vector_26" d="M26.9727 4.02621L26.0747 8.33163L26.6451 8.75373L25.7998 9.39776L26.4442 9.90428L25.5988 10.6747L26.1273 11.0543L24.9119 12.4788L19.3851 10.8642L15.4752 7.56123L25.6413 0.0266113L26.9727 4.02621Z" fill="#763D16" stroke="#763D16" stroke-linecap="round" stroke-linejoin="round"/>
<path id="Vector_27" d="M2.09837 12.4789L7.62512 10.8643L5.9445 13.3868L8.44922 18.2407L5.15231 18.1987H0.238047L2.09837 12.4789Z" fill="#F6851B" stroke="#F6851B" stroke-linecap="round" stroke-linejoin="round"/>
<path id="Vector_28" d="M19.3861 10.8643L24.9129 12.4789L26.752 18.1987H21.8483L18.562 18.2407L21.0561 13.3868L19.3861 10.8643Z" fill="#F6851B" stroke="#F6851B" stroke-linecap="round" stroke-linejoin="round"/>
<path id="Vector_29" d="M11.8826 13.6505L11.5338 7.56115L9.92708 3.22388H17.0605L15.4751 7.56115L15.1056 13.6505L14.9785 15.571L14.9679 20.2985H12.041L12.0197 15.571L11.8826 13.6505Z" fill="#F6851B" stroke="#F6851B" stroke-linecap="round" stroke-linejoin="round"/>
</g>
<defs>
<clipPath id="clip0_164_1943">
<rect width="27" height="25" fill="white" transform="matrix(-1 0 0 1 27 0)"/>
</clipPath>
</defs>
</svg>
