<svg width="22" height="24" viewBox="0 0 22 24" fill="none" xmlns="http://www.w3.org/2000/svg">
<g id="Icon">
<path id="icon" fill-rule="evenodd" clip-rule="evenodd" d="M14.5255 15.5576L14.5254 15.5572L14.5252 15.5565C14.4573 15.3564 14.3876 15.1506 14.3628 15.0755L14.3379 14.9998H17.0832C18.7533 14.9998 19.7632 13.6823 19.7632 11.9998C19.7632 6.05624 18.6511 1.99981 16.1898 1.99981C16.1898 1.99981 9.95716 2.00003 9.93553 1.99952C9.34765 1.98772 8.60135 2.08025 7.84888 2.38163C7.52006 2.51332 7.21756 2.67717 6.94645 2.87351C6.62476 2.34604 6.08341 1.99981 5.46982 1.99981H3.68315C2.6964 1.99981 1.89648 2.89524 1.89648 3.99981V12.9998C1.89648 14.1044 2.6964 14.9998 3.68315 14.9998H5.46982C5.64702 14.9998 5.81819 14.9709 5.97979 14.9172C6.60235 15.9319 8.17715 17.9463 9.44247 19.5648L9.44249 19.5648L9.44251 19.5648L9.44253 19.5649C10.1286 20.4424 10.7236 21.2036 11.0266 21.6259L11.2948 21.9998H11.73C12.2724 21.9999 12.7436 21.9538 13.285 21.7773C14.4852 21.3861 15.2965 20.4718 15.2965 18.9998C15.2965 18.4797 15.2142 17.9252 15.0626 17.3097C14.9624 16.9024 14.8384 16.4912 14.6685 15.9809C14.6443 15.9079 14.5857 15.7351 14.5255 15.5576ZM7.25649 12.9998V5.99981C7.25649 5.09758 7.66025 4.58133 8.45077 4.26472C8.96331 4.05944 9.51249 3.99135 9.90576 3.99921L14.8801 3.99979L16.1898 3.99981C17.0967 3.99981 17.9765 7.20906 17.9765 11.9998C17.9765 12.6399 17.7007 12.9998 17.0832 12.9998H13.5098C12.4427 12.9998 12.2194 13.9235 12.442 14.9235C12.4943 15.1587 12.5709 15.4176 12.687 15.7693C12.7149 15.8537 12.7903 16.0762 12.8607 16.2837C12.9183 16.4538 12.9726 16.6138 12.9943 16.6791C13.1475 17.1394 13.2563 17.5002 13.3402 17.8412C13.4526 18.2975 13.5098 18.6832 13.5098 18.9998C13.5098 19.4508 13.2974 19.6902 12.7855 19.8571C12.5704 19.9272 12.3587 19.9658 12.1341 19.9847C11.664 19.3557 10.9908 18.496 10.298 17.6111C8.95555 15.8967 7.53919 14.0878 7.38308 13.6798C7.29618 13.4527 7.25649 13.24 7.25649 12.9998ZM3.68315 12.9998V3.99981H5.46982V12.9998H3.68315Z" fill="#FF3300"/>
</g>
</svg>
