<svg width="20" height="20" viewBox="0 0 20 20" fill="none" xmlns="http://www.w3.org/2000/svg">
<g id="polygon 1" clip-path="url(#clip0_172_4380)">
<g id="Group">
<g id="Group_2">
<g id="Mask group">
<mask id="mask0_172_4380" style="mask-type:luminance" maskUnits="userSpaceOnUse" x="0" y="0" width="20" height="20">
<g id="Group_3">
<path id="Vector" d="M10 20C15.5228 20 20 15.5228 20 10C20 4.47715 15.5228 0 10 0C4.47715 0 0 4.47715 0 10C0 15.5228 4.47715 20 10 20Z" fill="white"/>
</g>
</mask>
<g mask="url(#mask0_172_4380)">
<path id="Vector_2" d="M-0.947266 -0.947021H20.9463V20.9466H-0.947266V-0.947021Z" fill="url(#paint0_linear_172_4380)"/>
</g>
</g>
<path id="Vector_3" d="M12.8916 12.1578L15.7202 10.5243C15.794 10.4816 15.8553 10.4203 15.898 10.3465C15.9406 10.2726 15.963 10.1888 15.963 10.1036V6.83713C15.9632 6.75174 15.9408 6.66782 15.8981 6.59383C15.8555 6.51984 15.7941 6.4584 15.7202 6.4157L12.8916 4.78285C12.8177 4.74022 12.734 4.71777 12.6487 4.71777C12.5635 4.71777 12.4797 4.74022 12.4059 4.78285L9.5773 6.41642C9.50345 6.45905 9.44213 6.52038 9.3995 6.59423C9.35687 6.66809 9.33443 6.75186 9.33444 6.83713V12.675L7.34944 13.8214L5.36587 12.6757V10.385L7.34944 9.23928L8.65801 9.99499V8.45713L7.5923 7.84213C7.51846 7.7995 7.4347 7.77706 7.34944 7.77706C7.26418 7.77706 7.18042 7.7995 7.10658 7.84213L4.27801 9.4757C4.20416 9.51834 4.14284 9.57967 4.10021 9.65352C4.05758 9.72737 4.03514 9.81114 4.03516 9.89642V13.1628C4.03516 13.3357 4.12801 13.4971 4.27801 13.5843L7.10658 15.2171C7.18042 15.2598 7.26418 15.2822 7.34944 15.2822C7.4347 15.2822 7.51846 15.2598 7.5923 15.2171L10.4209 13.5843C10.4947 13.5416 10.556 13.4803 10.5987 13.4065C10.6413 13.3326 10.6637 13.2488 10.6637 13.1636V7.32499L10.6994 7.30499L12.648 6.17999L14.6316 7.32499V9.61642L12.648 10.7614L11.3409 10.0071V11.5436L12.4052 12.1578C12.479 12.2005 12.5628 12.2229 12.648 12.2229C12.7333 12.2229 12.8177 12.2005 12.8916 12.1578Z" fill="white"/>
</g>
</g>
</g>
<defs>
<linearGradient id="paint0_linear_172_4380" x1="-401.052" y1="178.996" x2="1859.11" y2="1562.1" gradientUnits="userSpaceOnUse">
<stop stop-color="#A229C5"/>
<stop offset="1" stop-color="#7B3FE4"/>
</linearGradient>
<clipPath id="clip0_172_4380">
<rect width="20" height="20" fill="white"/>
</clipPath>
</defs>
</svg>
