<svg width="22" height="20" viewBox="0 0 22 20" fill="none" xmlns="http://www.w3.org/2000/svg">
<g id="Icon">
<path id="Mask" fill-rule="evenodd" clip-rule="evenodd" d="M19 8.60504C18.9937 8.61828 18.9873 8.63153 18.9814 8.645C18.9754 8.65896 18.9706 8.67352 18.9659 8.68804C18.9582 8.71167 18.9506 8.73519 18.9376 8.75583C18.9117 8.79669 18.8778 8.83098 18.8438 8.86539C18.8341 8.8752 18.8244 8.88502 18.8149 8.895C18.8043 8.90543 18.7949 8.91688 18.7855 8.92831C18.7724 8.94428 18.7594 8.96022 18.743 8.97333C18.694 9.01145 18.6372 9.03795 18.5807 9.06435C18.5767 9.06623 18.5727 9.06811 18.5687 9.07C18.5567 9.07551 18.5454 9.08244 18.534 9.08938C18.5178 9.09925 18.5017 9.10913 18.4837 9.115C18.389 9.14833 18.2882 9.16667 18.184 9.16667C18.1367 9.16667 18.0876 9.16333 18.0394 9.155L14.3152 8.5675C13.8377 8.4925 13.5152 8.06333 13.5941 7.60917C13.6729 7.15583 14.1233 6.845 14.6018 6.92417L16.0424 7.15083C14.9514 5.32917 12.8685 4.16667 10.5762 4.16667C7.98331 4.16667 5.69887 5.59833 4.75512 7.8125C4.61755 8.1375 4.28895 8.33333 3.94282 8.33333C3.83329 8.33333 3.722 8.31417 3.61422 8.2725C3.16557 8.1 2.94913 7.61417 3.1314 7.1875C4.34415 4.34 7.26652 2.5 10.5762 2.5C13.566 2.5 16.2833 4.05833 17.6547 6.49L17.978 4.84583C18.0674 4.39417 18.5266 4.095 19.0007 4.18167C19.4765 4.26583 19.7902 4.70167 19.7008 5.15417L19.0445 8.4875C19.036 8.53001 19.018 8.5675 19 8.60504ZM16.2754 12.1877C16.4568 11.7602 16.9685 11.5552 17.4163 11.7277C17.8649 11.9002 18.0814 12.386 17.8991 12.8127C16.6863 15.6602 13.764 17.5002 10.4543 17.5002C7.46447 17.5002 4.74715 15.9418 3.37579 13.5102L3.05157 15.1535C2.97358 15.5543 2.60555 15.8335 2.19107 15.8335C2.13762 15.8335 2.08329 15.8285 2.02896 15.8185C1.55314 15.7343 1.24032 15.2985 1.3297 14.846L1.98602 11.5127C1.99268 11.4799 2.00743 11.4509 2.02225 11.4217C2.03082 11.4048 2.03942 11.3879 2.04648 11.3702C2.05341 11.3536 2.05946 11.3364 2.06553 11.3192C2.07863 11.2819 2.09179 11.2446 2.11396 11.2127C2.12689 11.1937 2.1438 11.1785 2.16081 11.1633C2.17147 11.1537 2.18216 11.1441 2.19195 11.1335C2.19966 11.125 2.2073 11.1164 2.21492 11.1079C2.25662 11.0612 2.29795 11.0148 2.35055 10.981C2.35572 10.9774 2.36189 10.9753 2.36799 10.9732C2.37327 10.9714 2.3785 10.9695 2.38297 10.9668C2.46797 10.9143 2.5591 10.8735 2.65987 10.8527C2.66601 10.8513 2.6724 10.8517 2.67878 10.852C2.68423 10.8523 2.68967 10.8526 2.69492 10.8518C2.79131 10.8368 2.88858 10.8277 2.9911 10.8443L6.71525 11.4327C7.19282 11.5068 7.51529 11.9368 7.43643 12.391C7.36545 12.7985 6.99391 13.0877 6.57242 13.0877C6.5251 13.0877 6.47691 13.0843 6.42871 13.076L4.98813 12.8493C6.07908 14.671 8.16198 15.8335 10.4543 15.8335C13.0472 15.8335 15.3316 14.4018 16.2754 12.1877Z" fill="#616780"/>
</g>
</svg>
