<svg width="22" height="24" viewBox="0 0 22 24" fill="none" xmlns="http://www.w3.org/2000/svg">
<path fill-rule="evenodd" clip-rule="evenodd" d="M4.59986 11C4.59986 7.691 7.05533 5 10.0747 5C13.0941 5 15.5496 7.691 15.5496 11C15.5496 14.309 13.0941 17 10.0747 17C7.05533 17 4.59986 14.309 4.59986 11ZM18.9321 19.293L15.8343 15.897C16.7951 14.543 17.3745 12.846 17.3745 11C17.3745 6.589 14.0997 3 10.0747 3C6.04978 3 2.7749 6.589 2.7749 11C2.7749 15.411 6.04978 19 10.0747 19C11.7591 19 13.3076 18.365 14.5431 17.312L17.6419 20.707C17.8198 20.902 18.0534 21 18.287 21C18.5206 21 18.7542 20.902 18.9321 20.707C19.2889 20.316 19.2889 19.684 18.9321 19.293Z" fill="white"/>
</svg>
