<svg width="23" height="24" viewBox="0 0 23 24" fill="none" xmlns="http://www.w3.org/2000/svg">
<g id="Icon">
<path id="Mask" fill-rule="evenodd" clip-rule="evenodd" d="M11.3195 16.05C11.4645 16.05 11.6095 16.088 11.7417 16.163L15.1786 18.133L14.5247 13.976C14.4728 13.65 14.5722 13.318 14.7892 13.087L17.5576 10.151L13.725 9.539C13.4287 9.492 13.1724 9.289 13.0393 8.995L11.3195 5.201L9.59971 8.995C9.46658 9.289 9.21034 9.492 8.91398 9.539L5.08137 10.151L7.84982 13.087C8.06685 13.318 8.16624 13.65 8.11427 13.976L7.46045 18.133L10.8973 16.163C11.0295 16.088 11.1745 16.05 11.3195 16.05ZM16.3914 20.955C16.2464 20.955 16.1014 20.918 15.9692 20.842L11.3195 18.178L6.66986 20.842C6.36164 21.018 5.9896 20.987 5.71148 20.763C5.43062 20.539 5.2911 20.16 5.34946 19.785L6.23581 14.157L2.47888 10.172C2.22811 9.907 2.13875 9.509 2.24544 9.146C2.35122 8.783 2.63755 8.519 2.98132 8.464L8.17992 7.636L10.5025 2.51C10.8107 1.83 11.8283 1.83 12.1365 2.51L14.4591 7.636L19.6577 8.464C20.0015 8.519 20.2878 8.783 20.3936 9.146C20.5003 9.509 20.4109 9.907 20.1601 10.172L16.4032 14.157L17.2896 19.785C17.3479 20.16 17.2084 20.539 16.9275 20.763C16.7698 20.891 16.581 20.955 16.3914 20.955Z" fill="white"/>
</g>
</svg>
