<svg width="22" height="20" viewBox="0 0 22 20" fill="none" xmlns="http://www.w3.org/2000/svg">
<g id="Icon">
<path id="Mask" fill-rule="evenodd" clip-rule="evenodd" d="M4.87236 13.3334C5.35431 13.3334 5.74863 13.7084 5.74863 14.1667V15.0001H16.2639V14.1667C16.2639 13.7084 16.6582 13.3334 17.1402 13.3334C17.6221 13.3334 18.0164 13.7084 18.0164 14.1667V15.8334C18.0164 16.2917 17.6221 16.6667 17.1402 16.6667H4.87236C4.39042 16.6667 3.99609 16.2917 3.99609 15.8334V14.1667C3.99609 13.7084 4.39042 13.3334 4.87236 13.3334ZM6.99715 4.99683L10.5022 2.65183C10.8124 2.4435 11.2287 2.45016 11.5318 2.66683L15.0369 5.16683C15.2665 5.33016 15.3874 5.581 15.3874 5.83433C15.3874 6.00766 15.3305 6.1835 15.2122 6.3335C14.9221 6.70183 14.3727 6.776 13.9863 6.50016L11.8824 4.99933V5.00016V11.6668C11.8824 12.1268 11.4907 12.5002 11.0061 12.5002C10.5215 12.5002 10.1298 12.1268 10.1298 11.6668V5.00016C10.1298 4.98639 10.1338 4.97362 10.1378 4.96076C10.1411 4.95027 10.1444 4.93972 10.1456 4.9285L8.00486 6.36016C7.60966 6.62516 7.06287 6.53433 6.78421 6.15766C6.50468 5.78183 6.60107 5.26183 6.99715 4.99683Z" fill="white"/>
</g>
</svg>
