<svg width="20" height="20" viewBox="0 0 20 20" fill="none" xmlns="http://www.w3.org/2000/svg">
<g id="usdc 1" clip-path="url(#clip0_172_4366)">
<path id="Vector" d="M10 20C15.5417 20 20 15.5417 20 10C20 4.4583 15.5417 0 10 0C4.4583 0 0 4.4583 0 10C0 15.5417 4.4583 20 10 20Z" fill="#2775CA"/>
<path id="Vector_2" d="M12.7493 11.5833C12.7493 10.125 11.8743 9.62495 10.1243 9.41665C8.87432 9.24995 8.62432 8.91665 8.62432 8.33325C8.62432 7.74985 9.04102 7.37495 9.87432 7.37495C10.6243 7.37495 11.041 7.62495 11.2493 8.24995C11.291 8.37495 11.416 8.45825 11.541 8.45825H12.2076C12.3743 8.45825 12.4993 8.33325 12.4993 8.16665V8.12495C12.3326 7.20825 11.5826 6.49995 10.6243 6.41665V5.41665C10.6243 5.24995 10.4993 5.12495 10.291 5.08325H9.66602C9.49932 5.08325 9.37432 5.20825 9.33262 5.41665V6.37495C8.08262 6.54165 7.29102 7.37495 7.29102 8.41665C7.29102 9.79165 8.12432 10.3333 9.87432 10.5417C11.041 10.75 11.416 11 11.416 11.6667C11.416 12.3334 10.8326 12.7917 10.041 12.7917C8.95762 12.7917 8.58262 12.3333 8.45762 11.7083C8.41602 11.5417 8.29102 11.4583 8.16602 11.4583H7.45762C7.29102 11.4583 7.16602 11.5833 7.16602 11.75V11.7917C7.33262 12.8333 7.99932 13.5833 9.37432 13.7917V14.7917C9.37432 14.9583 9.49932 15.0833 9.70762 15.125H10.3326C10.4993 15.125 10.6243 15 10.666 14.7917V13.7917C11.916 13.5833 12.7493 12.7083 12.7493 11.5833Z" fill="white"/>
<path id="Vector_3" d="M7.87581 15.9583C4.62581 14.7917 2.95911 11.1667 4.16751 7.95835C4.79251 6.20835 6.16751 4.87505 7.87581 4.25005C8.04251 4.16675 8.12581 4.04175 8.12581 3.83335V3.25005C8.12581 3.08335 8.04251 2.95835 7.87581 2.91675C7.83411 2.91675 7.75081 2.91675 7.70911 2.95835C3.75081 4.20835 1.58411 8.41675 2.83411 12.375C3.58411 14.7083 5.37581 16.5 7.70911 17.25C7.87581 17.3333 8.04251 17.25 8.08411 17.0833C8.12581 17.0417 8.12581 17 8.12581 16.9167V16.3333C8.12581 16.2083 8.00081 16.0417 7.87581 15.9583ZM12.2925 2.95835C12.1258 2.87505 11.9591 2.95835 11.9175 3.12505C11.8758 3.16675 11.8758 3.20835 11.8758 3.29175V3.87505C11.8758 4.04175 12.0008 4.20835 12.1258 4.29175C15.3758 5.45835 17.0425 9.08335 15.8341 12.2917C15.2091 14.0417 13.8341 15.375 12.1258 16C11.9591 16.0833 11.8758 16.2083 11.8758 16.4167V17C11.8758 17.1667 11.9591 17.2917 12.1258 17.3333C12.1675 17.3333 12.2508 17.3333 12.2925 17.2917C16.2508 16.0417 18.4175 11.8333 17.1675 7.87505C16.4175 5.50005 14.5841 3.70835 12.2925 2.95835Z" fill="white"/>
</g>
<defs>
<clipPath id="clip0_172_4366">
<rect width="20" height="20" fill="white"/>
</clipPath>
</defs>
</svg>
