<svg width="23" height="15" viewBox="0 0 23 15" fill="none" xmlns="http://www.w3.org/2000/svg">
<g id="WalletConnect-icon 1" clip-path="url(#clip0_164_1991)">
<path id="WalletConnect_00000073703063438220642730000002917717552236472496_" d="M4.71156 2.92916C8.46182 -0.978666 14.5441 -0.978666 18.2944 2.92916L18.7454 3.39633C18.9352 3.59204 18.9352 3.9077 18.7454 4.1034L17.2025 5.71325C17.1076 5.80795 16.9592 5.80795 16.8643 5.71325L16.2412 5.063C13.6244 2.33573 9.38158 2.33573 6.76471 5.063L6.1001 5.75744C6.00516 5.85214 5.85681 5.85214 5.76187 5.75744L4.21311 4.15391C4.02322 3.9582 4.02322 3.64255 4.21311 3.44684L4.71156 2.92916ZM21.4868 6.25618L22.8635 7.68926C23.0534 7.88497 23.0534 8.20063 22.8635 8.39633L16.6625 14.8547C16.4727 15.0504 16.17 15.0504 15.9861 14.8547L11.589 10.2713C11.5415 10.2208 11.4644 10.2208 11.4169 10.2713L7.01987 14.8547C6.82998 15.0504 6.52735 15.0504 6.3434 14.8547L0.142415 8.39633C-0.0474716 8.20063 -0.0474716 7.88497 0.142415 7.68926L1.51909 6.25618C1.70898 6.06048 2.01161 6.06048 2.19556 6.25618L6.59262 10.8395C6.64009 10.89 6.71723 10.89 6.76471 10.8395L11.1618 6.25618C11.3517 6.06048 11.6543 6.06048 11.8382 6.25618L16.2353 10.8395C16.2828 10.89 16.3599 10.89 16.4074 10.8395L20.8044 6.25618C20.9943 6.06048 21.297 6.06048 21.4868 6.25618Z" fill="#3B99FC"/>
</g>
<defs>
<clipPath id="clip0_164_1991">
<rect width="23" height="15" fill="white"/>
</clipPath>
</defs>
</svg>
