<svg width="26" height="24" viewBox="0 0 26 24" fill="none" xmlns="http://www.w3.org/2000/svg">
<mask id="mask0_153_928" style="mask-type:alpha" maskUnits="userSpaceOnUse" x="3" y="1" width="20" height="20">
<path fill-rule="evenodd" clip-rule="evenodd" d="M16.4506 1.40266C17.5126 1.09921 18.6196 1.7142 18.923 2.77627C18.9741 2.95495 19 3.13988 19 3.32571V4.99998H21C22.1046 4.99998 23 5.89541 23 6.99998V19C23 20.1045 22.1046 21 21 21H5C3.89543 21 3 20.1045 3 19H3.0267C3.00895 18.8924 3 18.7835 3 18.6742V6.75428C3 5.86132 3.59195 5.07655 4.45056 4.83123L16.4506 1.40266ZM11.1401 19H21V11H19V15.2457C19 16.1386 18.408 16.9234 17.5494 17.1687L11.1401 19ZM19 6.99998H21V8.99998H19V6.99998ZM5 6.75426V18.6742L17 15.2457V3.32568L5 6.75426ZM15 8.99998C15 9.55227 14.5523 9.99998 14 9.99998C13.4477 9.99998 13 9.55227 13 8.99998C13 8.4477 13.4477 7.99998 14 7.99998C14.5523 7.99998 15 8.4477 15 8.99998Z" fill="black"/>
</mask>
<g mask="url(#mask0_153_928)">
<rect width="25.2366" height="24" fill="white"/>
</g>
</svg>
