<svg width="23" height="24" viewBox="0 0 23 24" fill="none" xmlns="http://www.w3.org/2000/svg">
<g id="Icon">
<path id="icon" fill-rule="evenodd" clip-rule="evenodd" d="M20.4917 11.999C20.4917 10.3165 19.4819 8.99902 17.8117 8.99902H15.0664L15.0913 8.9233C15.1161 8.84817 15.186 8.6419 15.2539 8.4415L15.254 8.44124C15.3142 8.26376 15.3728 8.09093 15.3971 8.01793C15.5669 7.50758 15.6909 7.09638 15.7912 6.68915C15.9427 6.07366 16.025 5.51914 16.025 4.99902C16.025 3.52702 15.2137 2.61274 14.0135 2.22151C13.4721 2.04505 13.0009 1.99893 12.4517 1.99902H12.0233L11.7551 2.37291C11.4521 2.79526 10.8571 3.55645 10.171 4.43403L10.171 4.43403L10.171 4.43406C8.90534 6.05297 7.3301 8.06793 6.70785 9.08242C6.54639 9.02874 6.37537 8.99992 6.19834 8.99992H4.41167C3.42492 8.99992 2.625 9.89535 2.625 10.9999V19.9999C2.625 21.1045 3.42492 21.9999 4.41167 21.9999H6.19834C6.81217 21.9999 7.3537 21.6534 7.67534 21.1256C7.94635 21.3218 8.24873 21.4856 8.57739 21.6172C9.32986 21.9186 10.0762 22.0111 10.6957 21.9984L16.9183 21.999C19.3796 21.999 20.4917 17.9426 20.4917 11.999ZM9.17928 19.7341C8.38876 19.4175 7.985 18.9013 7.985 17.999V10.9999V10.999C7.985 10.7588 8.0247 10.5461 8.1116 10.319C8.2677 9.91103 9.68405 8.10218 11.0265 6.38772L11.0265 6.3877C11.7194 5.50285 12.3925 4.64315 12.8626 4.01415C13.0872 4.03301 13.2989 4.07165 13.514 4.14176C14.0259 4.30862 14.2383 4.54805 14.2383 4.99902C14.2383 5.31561 14.1811 5.70134 14.0687 6.15763C13.9848 6.4986 13.876 6.85939 13.7228 7.31969C13.7012 7.38466 13.6474 7.54337 13.5901 7.71254L13.5891 7.71533L13.589 7.71568C13.5187 7.92297 13.4434 8.1452 13.4155 8.22957C13.2994 8.58119 13.2228 8.84009 13.1705 9.07534C12.948 10.0754 13.1712 10.999 14.2383 10.999H17.8117C18.4292 10.999 18.705 11.3589 18.705 11.999C18.705 16.7898 17.8252 19.999 16.9183 19.999H10.665L10.632 19.9996C10.241 20.0075 9.69183 19.9394 9.17928 19.7341ZM4.41167 19.9999V10.9999H6.19834V19.9999H4.41167Z" fill="#00FFA3"/>
</g>
</svg>
